<svg xmlns="http://www.w3.org/2000/svg" width="118.241" height="168.586" viewBox="0 0 118.241 168.586">
  <g id="logo" transform="translate(-28.07 -361)">
    <path id="Path_378" data-name="Path 378" d="M360.119,361c3.44,1.252,5.136,6.808,3.286,11.037,2.608,1.382,2.821,6.513,1.341,9.383a14.776,14.776,0,0,1,6.756,5.956,20.94,20.94,0,0,1,3.285,9.49c.266,4.341-2.163,7.183-5.014,8.887-3.083,1.831-6.966,2.288-10.906,2.932a70.335,70.335,0,0,0-11.2,2.638c-3.347,1.138-7.51,2.992-9.357,5.575a25.937,25.937,0,0,0-3.088,6.343,27.689,27.689,0,0,0,2.508,22.672c-4.561-2.909-6.749-8.9-6.848-15.638-.108-7.026,1.709-13.047,5.506-16.9a24.126,24.126,0,0,1,7.433-4.783c2.894-1.268,6.108-1.78,9.635-2.446,6.31-1.18,15.207-1.614,17.268-6.937a8.528,8.528,0,0,0,.393-2.148,16.751,16.751,0,0,0-2.993-9.188,12.408,12.408,0,0,0-6.852-5.278c2.354-2.541,1.707-8.365-.582-10.461a7.919,7.919,0,0,0,1.159-4.883c-.1-1.006-.669-3.325-1.647-3.419-1.091-.1-2.089,2.241-2.213,3.326a8.509,8.509,0,0,0,1.062,4.788c-.464.684-1.078,1.064-1.535,1.855-1.487,2.549-.782,6.472.282,8.992-7.975,1.174-10.541,7.822-12.539,15.053.127-8.349,3.239-14.5,9.642-16.811a9.464,9.464,0,0,1,1.833-9.282c-2.058-4.246.254-9.322,3.381-10.748" transform="translate(-267.187)" fill="#fefdfd" fill-rule="evenodd"/>
    <path id="Path_379" data-name="Path 379" d="M368.726,793.014c.021-.108.108-.053.108,0,5.9,5.426,3.728,18.776.955,26.094-1.4,3.654-3.387,6.473-4.923,9.774-1.489,3.221-2.825,8.182-1.355,11.922,2.728,6.883,11.777,9.324,21.523,8.887-6.813-2.708-11.239-7.834-14.576-14.076.273-.173.616.442.975.789,3.775,3.7,7.783,7.392,13.217,9.675a14.7,14.7,0,0,0,6.852,1.362c4.968-.368,7.775-3.542,8.763-7.917,1.118-4.847-.292-10.2-1.721-14.162-1.365-3.74-3.452-7.482-4.641-12.024-1.132-4.333-1.728-10.194-.094-14.458,2.88-7.537,11.467-12.344,21.8-9.186,8.4,2.568,14.13,8,19.108,14.076a40.776,40.776,0,0,0-13.7-8.609c-5.356-1.893-13.957-3.227-18.811,0-4.052,2.7-5.843,6.863-5.79,12.117.1,10.384,6.9,17.863,8.4,27.271.921,5.811-.769,10.229-4.156,13.087a13.53,13.53,0,0,1-5.687,2.941,19.842,19.842,0,0,1-9.453-.784c-6.321,2.612-15.35,1.135-19.775-1.951a15.877,15.877,0,0,1-6.469-11.341c-.356-4.72,1.348-7.9,3-10.848a61.311,61.311,0,0,0,7.326-20.329c.618-3.967.756-8.967-.872-12.31" transform="translate(-292.196 -377.391)" fill="#fefdfd" fill-rule="evenodd"/>
    <path id="Path_380" data-name="Path 380" d="M466.4,975.224c-2.362-5.88,1.593-10.453,7.235-10.363a10.768,10.768,0,0,1,10.508,9.677,15.048,15.048,0,0,1,0,2.627c-.554,7.817-7.056,11.083-14.662,10.561-3.6-.24-6.2-1.482-9.082-3.032a18.866,18.866,0,0,0,8.7,1.565c5.39-.416,9.7-3.7,10.224-8.99a6.88,6.88,0,0,0-6.272-7.81c-4-.418-5.632,2.634-6.647,5.766" transform="translate(-381.469 -532.818)" fill="#fefdfd" fill-rule="evenodd"/>
    <path id="Path_381" data-name="Path 381" d="M230.621,1356.04a.149.149,0,0,1,.113.175c-.852,1.259-2.425,2-3.809,2.914-3.04,1.994-6.3,4.12-9.385,5.875.074-1,.941-1.233,1.818-1.775,3.228-2.012,6.34-3.968,9.562-6.007a10.9,10.9,0,0,0,1.7-1.182" transform="translate(-167.18 -877.979)" fill="#fefdfd" fill-rule="evenodd"/>
    <path id="Path_382" data-name="Path 382" d="M376.267,1357.53c1.794.442,1.985,4.149.707,5.348.135-1.061.728-2.092.233-3.206-.318-.716-1.378-1.2-.94-2.142" transform="translate(-307.142 -879.294)" fill="#fefdfd" fill-rule="evenodd"/>
    <path id="Path_383" data-name="Path 383" d="M763.72,1362.57c-.274,1.525-2.486,1.629-4.047,2.321-5.38,2.371-10.977,4.461-16.308,6.773-2.169.938-4.215,1.993-6.335,2.732-.006-.674.8-.865,1.238-1.071,5.934-2.82,12.3-5.229,18.587-7.782a72.272,72.272,0,0,0,6.866-2.973" transform="translate(-625.555 -883.741)" fill="#fefdfd" fill-rule="evenodd"/>
    <path id="Path_384" data-name="Path 384" d="M384.562,1374.7c.289.634-.713.746-1.114.951-2.284,1.152-4.941,2.875-7.389,3.98-.049-.821,1.1-1.073,1.758-1.426,2.016-1.082,4.469-2.552,6.514-3.385.054-.026.091-.119.173-.121h.059Z" transform="translate(-307.048 -894.444)" fill="#fefdfd" fill-rule="evenodd"/>
    <path id="Path_385" data-name="Path 385" d="M60.443,1398.45c.98,1.193,1.378,3.285,1.763,4.872-.522.22-.507-.587-.939-.659a3.01,3.01,0,0,0-.233,1.962c.158,3.679,1.339,7.013,1.109,11.054-.119,2.212-.708,5.245-3.161,5.05A2.983,2.983,0,0,1,56.816,1419c-.949-2.167-.162-5.987-1.414-7.777-.518,1.872-1.206,3.569-2.994,4.154-.146,4.446-3.222,7.083-6.572,8.677-1.966.934-4.582,1.614-6.034-.241-1.5-1.9-.478-5.576.413-7.6-2.311.3-5.39.912-7.574,0a12.641,12.641,0,0,1-3.692-2.792c-.334-.322-.874-.636-.88-1.131,4.949,3.112,15.9,1.965,18.764-2.376-.5-1.456-2.758-1.055-4.213-1.782-.494-.24-1.281-.8-1.409-1.366a5.325,5.325,0,0,1,.639-3.026,8.639,8.639,0,0,1,3.113-4.1c.515-.358,1.867-1.134,2.693-.652.7.408.4,2.112.115,2.852-.286.043-.569-.589-.992-.715-1.98-.588-4.2,2.088-4.81,3.445.674,2.348,5.253,1.013,5.748,3.392a5.713,5.713,0,0,1-.884,3.566c-1.2,2.208-3.358,3.339-5.925,4.214-1.314,1.768-2.009,5.908.469,6.774a4.412,4.412,0,0,0,1.765.122,12.076,12.076,0,0,0,4.693-1.787,10.665,10.665,0,0,0,3.462-2.968,8.937,8.937,0,0,0-1.473-4.1,9.961,9.961,0,0,1,.353-2.2c.593.379.628,1.046,1.234,1.3a2.436,2.436,0,0,0,2.051-.174c1.334-.651,1.62-2.651,2.12-3.917.96.627,1.029,2.359,1.168,3.975a11.941,11.941,0,0,0,.822,4.338,2.474,2.474,0,0,0,1.344,1.189,2.415,2.415,0,0,0,2.522-.891c-.4-3.64-1.008-7.839-1.347-11.764a37.053,37.053,0,0,0-.349-3.978c-.056-.254-.228-.443-.234-.715-.034-.925.8-1.719.934-2.494" transform="translate(0 -915.4)" fill="#fefdfd" fill-rule="evenodd"/>
    <path id="Path_386" data-name="Path 386" d="M572.127,1400.48a11.86,11.86,0,0,1,1.4,4.988c-.488.083-.452-.829-.933-.951-.018,3.028.347,6.721.583,9.981a19.652,19.652,0,0,1,.118,3.447c-.176,1.659-1.047,4.051-2.52,4.217a3.626,3.626,0,0,1-2.11-.478c-.888-.543-1.04-1.669-1.465-2.548-.812.753-1.189,2.643-2.638,2.788a1.891,1.891,0,0,1-2-1.667c-1,.334-1.135,1.612-2.236,1.9a2.412,2.412,0,0,1-3.163-2.493c-1.932.784-4.594,2.227-6.921,1.244a4.1,4.1,0,0,1-2.225-3.386c-.174-.056-.225.1-.3.182-1.222,1.252-2.379,4.362-5.1,3.442a4.581,4.581,0,0,1-1.119-.648c-.3-.255-.8-1.156-1.226-1.249-.619-.137-1.3.58-1.82.773-.806.293-1.908.446-2.992.709-2.712.662-6.774,1.362-9.739.6a8.8,8.8,0,0,1-3.4-1.664,2.947,2.947,0,0,1-.879-1.309c-.073-.452.022-1.12,0-1.664a6.865,6.865,0,0,1,.759-3.681c.288-.639.515-1.273,1.119-1.492-.253,1.366-1.353,2.025-1.174,3.687a4.384,4.384,0,0,0,1,2.14c3.182,3.5,12.395,1.575,16.3.175a7.4,7.4,0,0,1,.236-5.585c.327-.735.966-1.992,1.874-1.958,1.04.035,2.386,2.125,2.523,3.206a5.47,5.47,0,0,1,0,1.011,6.734,6.734,0,0,1-2.234,3.978,3.014,3.014,0,0,0,2.581.66c2.438-.279,2.639-3.185,4.462-3.987-.068.782-.444,1.321-.238,2.082.289,1.053,1.919,1.772,3.228,1.9,2.66.258,5.007-.973,6.632-1.548.134.568-.527.806-.532,1.309-.007,1.155,2.121,1.623,3.28,1.124,1.236-.526,1.636-2.325,2.7-2.609.1.624-.641.755-.647,1.362,0,.928,1.258,1.374,2.289,1.073,1.266-.376,1.574-2.346,2.581-2.735.034.435-.427.62-.418,1.012.04,1.152,3,2.662,4.227,1.842a43.957,43.957,0,0,0-.288-7.966c-.193-2.775-.073-5.623-.359-8.137a4.9,4.9,0,0,1-.172-1.008c.049-.869.681-1.355.938-2.078m-30.091,15.683c.3-.213,1-.675,1.056-.952a4.1,4.1,0,0,0-.942-2.138,2.005,2.005,0,0,0-1.461-.774c-1.212.156-1.138,1.991-.763,3.089a3.288,3.288,0,0,0,.82,1.427,8.466,8.466,0,0,0,1.291-.653" transform="translate(-435.312 -917.191)" fill="#fefdfd" fill-rule="evenodd"/>
    <path id="Path_387" data-name="Path 387" d="M345.946,1421.012c-.06-.565-.514-.928-.7-1.422a6.093,6.093,0,0,1,1.523-6.179c1.828-1.441,5.042.185,7.216-.893a4.256,4.256,0,0,0,1.822-2.614,4.871,4.871,0,0,1-.531,2.374,4.235,4.235,0,0,1-3.814,2.739c-2.038.073-4.438-.875-5.515.943a3.347,3.347,0,0,0,.238,1.611,7.5,7.5,0,0,0,2.411,2.854c1.511.986,3.415.452,5.035-.3,1.488-.687,2.765-1.321,4.054-2.023-.893,2.625-2.715,3.309-5.162,4.22-1.751.649-4.693,1.823-7.159,1.068-3.169-.968-3.068-5.788-3.4-9.742-.151-1.825-.364-3.573-.527-5.17a15.7,15.7,0,0,0-.351-2.5c-.372-1.422-.667-2.524-.058-3.866a.314.314,0,0,1,.175-.176c.047-.013.058.028.062.056,1.151,3.354,1.238,8.328,1.7,12.535.322,3.015.452,5.748,2.982,6.479" transform="translate(-275.825 -918.479)" fill="#fefdfd" fill-rule="evenodd"/>
    <path id="Path_388" data-name="Path 388" d="M1001.638,1409.07a11.919,11.919,0,0,1,1.418,4.572c-.528-.008-.5-.57-.887-.715a66.916,66.916,0,0,0,.413,8.854c.185,2.875.467,6.345-.881,8.2.014-4.439-.387-9.056-.588-13.482-.068-1.532.066-3.1-.118-4.515-.038-.259-.234-.484-.234-.774.008-.749.688-1.44.878-2.135" transform="translate(-858.258 -924.77)" fill="#fefdfd" fill-rule="evenodd"/>
    <path id="Path_389" data-name="Path 389" d="M662.686,1426.71a6.756,6.756,0,0,1,2.056,1.427,3.864,3.864,0,0,1-1,2.021c-.679-.442-1.369-.871-1.994-1.369a10.351,10.351,0,0,1,.936-2.079" transform="translate(-559.131 -940.335)" fill="#fefdfd" fill-rule="evenodd"/>
    <path id="Path_390" data-name="Path 390" d="M392.545,1439.01c-.372-.73-1.107-1.091-1.525-1.785a12.859,12.859,0,0,1,1.233-1.9c.5.626,1.571,1.026,1.472,2.018-.079.671-.739,1.208-1.18,1.662" transform="translate(-320.251 -947.941)" fill="#fefdfd" fill-rule="evenodd"/>
    <path id="Path_391" data-name="Path 391" d="M873.962,1441.85c.6.8,1.066,2.714.177,3.5-.384.087-1.064.142-1.288-.116-.225.176-.34.448-.592.6-1.421.252-1.334-.816-1.464-2.079-.053-.488-.258-.985.059-1.188.64.388.009,1.987.645,2.438a.81.81,0,0,0,1.116-.3c-.026-.852-.574-1.844-.119-2.618.673.683.015,2.716,1.527,2.552.379-.866-.859-2.029-.061-2.792" transform="translate(-743.482 -953.694)" fill="#fefdfd" fill-rule="evenodd"/>
    <path id="Path_392" data-name="Path 392" d="M812.5,1452.443c.1-.02.112.047.118.115-.136,1.029-2.04,2.727-1.283,4.4.333.756,1.6.9,1.515-.417.546,1.031-.584,2.635-1.642,1.665-1.414-1.309.711-4.9,1.293-5.766" transform="translate(-690.581 -963.038)" fill="#fefdfd" fill-rule="evenodd"/>
    <path id="Path_393" data-name="Path 393" d="M58,1571.963c.316.508,1.531,1.021,1.456,1.964-.014.285-.369.624-.58.891-.133.171-.487.766-.646.772-.372.021-.929-1.347-1.412-1.367-.552.428-.88,1.471-1.7,1.309-.6-.118-1.194-1.528-1.642-1.9a6.061,6.061,0,0,1,1.173-1.96c.556.341.947,1.247,1.468,1.661,1.016.811,1.235-.728,1.879-1.368" transform="translate(-22.421 -1068.241)" fill="#fefdfd" fill-rule="evenodd"/>
    <path id="Path_394" data-name="Path 394" d="M688.365,1582.876c.573-.478.866-1.235,1.522-1.606a8.117,8.117,0,0,1,1.767,1.663,5.215,5.215,0,0,1-1.413,1.72c-.639-.443-1.094-1.069-1.752-1.488-.658.314-.882,1.418-1.591,1.433-.688.01-1.088-1.107-1.7-1.433.161-.861.8-1.236,1.167-1.894a15.537,15.537,0,0,1,2,1.6" transform="translate(-579.822 -1076.712)" fill="#fefdfd" fill-rule="evenodd"/>
    <path id="Path_395" data-name="Path 395" d="M226.463,1593.353a1.647,1.647,0,0,1-.528,1.127c-.146.192-.524.826-.764.833s-.7-.631-.878-.773c-.4-.306-.708-.384-1-.653a12.842,12.842,0,0,1-1.528,1.665,12.952,12.952,0,0,1-1.758-1.665,10.786,10.786,0,0,1,1.228-1.9c.766.4,1.185,1.139,1.885,1.609.691-.374.855-1.272,1.462-1.726.8.317,1.236,1,1.878,1.483" transform="translate(-169.359 -1086.065)" fill="#fefdfd" fill-rule="evenodd"/>
    <path id="Path_396" data-name="Path 396" d="M735.485,1386.939c1.2-.267,3.351-.655,4.58-.121a2.344,2.344,0,0,1-.772,1.845,6.966,6.966,0,0,1-4.327,2.373c.342-.6,1.1-.788,1.7-1.127a16.648,16.648,0,0,0,1.7-1.129,10.031,10.031,0,0,0-3.809.356,6.927,6.927,0,0,1,.935-2.2" transform="translate(-623.367 -904.9)" fill="#fefdfd" fill-rule="evenodd"/>
    <path id="Path_397" data-name="Path 397" d="M537.816,1639.311c.042-.008.051.029.052.059a1.8,1.8,0,0,0-.9,2.293c1.552-.712,5.686-2.1,7.009-.059.385,2.611-3.922,2.808-5.655,1.831-.451-.259-.913-1.016-1.126-1.033-.122-.008-.852.754-.961.861a7.744,7.744,0,0,0-1.866,3.488c-.134,1.233.287,2.266,1.3,2.348a3.328,3.328,0,0,0,2.543-1.2c.8-.911.719-2.656,2.709-2.175-.076.935-.732,1.39-1.068,2a14.337,14.337,0,0,1-.961,1.774,6.908,6.908,0,0,1-6.05,3.145c-1.034-.071-2.389-.62-2.484-1.887-.039-.614.162-1.307.626-1.489a.856.856,0,0,1,1.242.861c-.091.719-.921.44-.618,1.489.2.709,1.2.931,2.081.855,2.174-.183,3.669-3.019,4.522-4.4-1.106,1.325-5.132,2.359-5.48-.519-.371-3.016,2.307-4.623,4.066-5.77a1.882,1.882,0,0,1,1.021-2.468m5.136,2.753a1.055,1.055,0,0,0-1.02-1.319c-2.009-.3-3.579.868-4.626,1.6.858,1.7,5.319,1.82,5.646-.281" transform="translate(-443.19 -1127.924)" fill="#fefdfd" fill-rule="evenodd"/>
    <path id="Path_398" data-name="Path 398" d="M40.877,1659.747c2.555-.5,3.453-2.68,5.025-4.172a13.434,13.434,0,0,1-3.949,4.172c-1.1.6-2.634.469-2.776-.972-.144-1.616.687-2.863,1.079-3.948-.668.154-1.491-.2-2.153,0-.387.12-1.046,1.075-1.516,1.6-1.342,1.487-3.458,3.668-6.163,3.551-1.146-.055-2.425-.616-2.313-2.063.081-1.062,1.173-1.519,1.808-.687.12.812-.319,1.054-.9,1.147a1.539,1.539,0,0,0,1.635,1.428c1.907.1,3.474-1.225,4.629-2.289a43.565,43.565,0,0,0,3.272-3.6c2.155-2.434,4.859-4.946,7.973-6.008.453-.159-.125.455-.228.572a28.013,28.013,0,0,0-5.081,7.67c-.4.964-1.1,2.536-.338,3.6m4.067-10.924c-2.8,1.376-4.78,3.587-6.722,5.836H40.37a24.5,24.5,0,0,1,4.574-5.836" transform="translate(-0.028 -1135.484)" fill="#fefdfd" fill-rule="evenodd"/>
    <path id="Path_399" data-name="Path 399" d="M182.28,1652.96c-1.691,2.785-3.315,5.45-5.034,8.24-.528.866-1.412,1.8-1.239,3.029a2.309,2.309,0,0,0,1.867-.741,15.062,15.062,0,0,0,1.579-1.661,10.012,10.012,0,0,1,1.525-1.715c-1.1,1.273-2.449,3.563-4.182,4.292-.556.229-1.738.3-2.038-.175-.6-.963.576-2.475.964-3.145,1.6-2.759,3.2-5.368,4.8-8.01.542-.079,1.169-.074,1.754-.113" transform="translate(-129.285 -1139.968)" fill="#fefdfd" fill-rule="evenodd"/>
    <path id="Path_400" data-name="Path 400" d="M720.454,1652.96c-1.633,2.772-3.451,5.5-5.141,8.3-.52.86-1.393,1.888-1.073,3.033a4.508,4.508,0,0,0,2.763-1.778,23.617,23.617,0,0,1,2.149-2.4,22.12,22.12,0,0,1-2.028,2.461,6.389,6.389,0,0,1-2.489,1.945c-1.365.365-2.118-.337-1.7-1.6a28.457,28.457,0,0,1,2.825-4.976c1.031-1.716,1.983-3.415,2.93-4.863.547-.08,1.175-.075,1.759-.114" transform="translate(-604.195 -1139.968)" fill="#fefdfd" fill-rule="evenodd"/>
    <path id="Path_401" data-name="Path 401" d="M769.874,1652.96c-1.636,2.774-3.459,5.5-5.149,8.3-.515.86-1.4,1.888-1.071,3.033a4.477,4.477,0,0,0,2.766-1.778,23.756,23.756,0,0,1,2.149-2.4,20.652,20.652,0,0,1-2.038,2.461,6.236,6.236,0,0,1-2.482,1.945c-1.365.365-2.127-.337-1.7-1.6a31.183,31.183,0,0,1,2.826-4.976c1.032-1.754,2.04-3.456,2.944-4.863.538-.08,1.162-.075,1.753-.114" transform="translate(-647.792 -1139.968)" fill="#fefdfd" fill-rule="evenodd"/>
    <path id="Path_402" data-name="Path 402" d="M359.573,1655.8c.3-.681.565-2.189-.285-2.349a1.811,1.811,0,0,0-1.3.573c-1.351,1.146-2.52,3.461-3.338,4.921a28.961,28.961,0,0,1,4.132.112,4.542,4.542,0,0,1-2.092.176h-2.206c-1.3,2.015-2.343,4.469-3.956,6.689-1.467,2.026-3.552,3.927-6.721,3.891-1.215-.013-2.676-.479-2.992-1.488-.607-1.9,1.221-2.9,2.992-2.572a2.13,2.13,0,0,0-1.692,2.459c.161,1,1.094,1.54,2.482,1.373,2.238-.265,3.826-2.862,4.865-4.464,1.321-2.064,2.341-4.069,3.383-5.888-.456-.074-1.2.142-1.469-.12.26-.347,1.114-.091,1.639-.169,1.329-1.846,3.041-5.339,5.932-5.668,1.008-.109,2.089.234,2.265.977.265,1.138-.582,1.6-1.641,1.548" transform="translate(-275.851 -1140.224)" fill="#fefdfd" fill-rule="evenodd"/>
    <path id="Path_403" data-name="Path 403" d="M410.9,1670.624c.764-.189,1.091.206,1.016.858-.108.884-1.549,1.013-1.7.114a.757.757,0,0,1,.679-.972" transform="translate(-337.18 -1155.512)" fill="#fefdfd" fill-rule="evenodd"/>
    <path id="Path_404" data-name="Path 404" d="M297.214,1699.948c.236-.1.258-.421.454-.572.5-.086,1.088-.077,1.636-.112-.691,1.355-1.74,2.558-2.483,4.006-.221.427-.6,1.073-.229,1.6,1.346-.067,2.048-1.046,2.769-1.776.754-.762,1.422-1.615,2.149-2.4-.933,1.228-2.926,4.309-4.919,4.575-.927.125-1.645-.3-1.408-1.256-.872,1.188-4.176,2.316-3.954-.742.149-2.1,2.879-4.6,4.915-4.292a1.429,1.429,0,0,1,1.069.968m-1.859-.627a6.089,6.089,0,0,0-2.546,3.835c-.288,1.574.806,1.926,1.753,1.146a8.258,8.258,0,0,0,2.141-3.662c.193-.992-.115-1.471-.786-1.429a1.735,1.735,0,0,0-.562.111" transform="translate(-232.191 -1180.55)" fill="#fefdfd" fill-rule="evenodd"/>
    <path id="Path_405" data-name="Path 405" d="M635.243,1699.928c.253-.092.28-.4.452-.571a16.332,16.332,0,0,1,1.639-.112c-.669,1.364-1.753,2.558-2.486,4.006-.22.433-.561,1.078-.225,1.6a4.344,4.344,0,0,0,2.825-1.778c.368-.384.733-.794,1.078-1.2a4.883,4.883,0,0,1,1.065-1.2c-1,1.155-2.882,4.309-4.967,4.575-.881.113-1.588-.213-1.412-1.256-.811,1.186-4.106,2.274-3.958-.629.1-1.98,2.665-4.743,4.915-4.406a1.322,1.322,0,0,1,1.074.969m-4.4,3.267c-.066.614,0,1.122.339,1.369,1.012.729,2.3-1.3,2.658-1.887s1.921-3.61.107-3.488c-1.463.091-2.961,2.635-3.1,4.006" transform="translate(-530.453 -1180.53)" fill="#fefdfd" fill-rule="evenodd"/>
    <path id="Path_406" data-name="Path 406" d="M815.125,1702.637c-.373,3.576,3.18,1.922,4.57.628a32.247,32.247,0,0,1,2.319-2.461c-1.493,1.682-2.828,4.292-6.046,4.575a2.112,2.112,0,0,1-2.259-3.145,5.818,5.818,0,0,1,4.3-3.146c.871-.075,1.728.2,1.807.914.109,1.025-1.108,1.618-1.807,1.889a17.93,17.93,0,0,1-2.881.745m2.6-3.318c-1.154.355-2.149,2.081-2.543,3.141,1.591-.4,3.319-1.23,3.278-3.031a.816.816,0,0,0-.734-.111" transform="translate(-692.992 -1180.659)" fill="#fefdfd" fill-rule="evenodd"/>
    <path id="Path_407" data-name="Path 407" d="M875.882,1702.242a16,16,0,0,1,2.656-2.459,2.545,2.545,0,0,1,2.151-.745c-.3.661-1.047,1.321-.792,2.234.293,1.065,1.952.031,2.2-.518-.208,1.127-3.055,2.093-3.672.518a2.636,2.636,0,0,1,.166-1.32,13.91,13.91,0,0,0-4.234,5.1H872.78c1.073-1.94,2.243-3.792,3.33-5.722.6-.016,1.152-.089,1.812-.055-.639,1.031-1.4,1.941-2.04,2.972" transform="translate(-745.335 -1180.609)" fill="#fefdfd" fill-rule="evenodd"/>
    <path id="Path_408" data-name="Path 408" d="M908.843,1701.061c-.486.855-1.078,1.738-1.634,2.629-.508.812-1.4,1.78-1.014,2.914a4.871,4.871,0,0,0,2.986-2.225,16,16,0,0,0,1.918-3.262c.538-.013,1.007-.093,1.588-.055-1.093,2.019-2.188,4.038-3.331,6.007a10.518,10.518,0,0,0,4.913-3.95c.161-.206.289-.512.565-.571a10.792,10.792,0,0,1-5.593,4.747c-1.353,2.09-3.482,4.692-7.066,4.692-1.491,0-3.665-.708-2.988-2.8.3-.925,1.814-1.508,3.05-1.027-2.4-.185-2.1,3.259-.458,3.6a3.873,3.873,0,0,0,1.416-.06c3.032-.8,4.463-4.736,5.932-6.919-.716.54-1.615,1.872-2.767,2.174-.96.258-1.733-.062-1.635-1.142.148-1.694,1.972-3.428,2.427-4.693.578-.012,1.071-.1,1.69-.058" transform="translate(-768.523 -1182.401)" fill="#fefdfd" fill-rule="evenodd"/>
    <path id="Path_409" data-name="Path 409" d="M378.857,1701.588c-.455.908-1.094,1.753-1.636,2.629-.515.828-1.312,1.746-1.078,2.918,1.227-.059,1.962-1.064,2.714-1.827.392-.393.774-.793,1.126-1.2.339-.385.626-.9,1.078-1.087a15.24,15.24,0,0,1-2.148,2.52c-.759.766-1.592,1.778-2.711,1.942-.947.144-1.589-.272-1.466-1.317.185-1.628,2.056-3.344,2.54-4.52.592.047,1.012-.079,1.581-.055" transform="translate(-305.869 -1182.872)" fill="#fefdfd" fill-rule="evenodd"/>
    <path id="Path_410" data-name="Path 410" d="M223.488,1701.463c.429-.867.448-2.462-.792-2.117-.484.133-.731.688-.616,1.37s.9,1.155,1.184,2a1.907,1.907,0,0,1-.96,2.345c2.4-.63,3.476-2.621,4.979-4.176-1.356,2.247-3.736,4.818-6.9,4.52a2.166,2.166,0,0,1-1.813-1.083,1.8,1.8,0,0,1,.745-2.12c1.394-.435,1.533,1.709.109,1.318-.794,2.227,2.461,2.065,2.656.456.146-1.224-1.138-1.654-1.3-2.751-.332-2.212,3.172-2.834,4.181-1.2.167,1.122-.511,1.627-1.472,1.432" transform="translate(-168.012 -1180.686)" fill="#fefdfd" fill-rule="evenodd"/>
  </g>
</svg>
